<svg width="9" height="16" viewBox="0 0 9 16" fill="none" xmlns="http://www.w3.org/2000/svg">
<path d="M0.600098 8.59999C0.600098 7.63556 0.983213 6.71064 1.66516 6.02869C2.34711 5.34674 3.27204 4.96362 4.23646 4.96362C5.20089 4.96362 6.12581 5.34674 6.80776 6.02869C7.48971 6.71064 7.87283 7.63556 7.87283 8.59999V12.2364C7.87283 13.608 7.87282 14.2931 7.44664 14.7193C7.02046 15.1454 6.33537 15.1454 4.96373 15.1454H3.50919C2.13755 15.1454 1.45246 15.1454 1.02628 14.7193C0.600098 14.2931 0.600098 13.608 0.600098 12.2364V8.59999Z" stroke="white" stroke-width="1.2" stroke-linecap="round" stroke-linejoin="round"/>
<path d="M2.78192 4.96373V4.23646C2.78192 3.55064 2.78192 3.2081 2.99501 2.99501C3.2081 2.78192 3.55064 2.78192 4.23646 2.78192M4.23646 2.78192C4.92228 2.78192 5.26482 2.78192 5.47792 2.99501C5.69101 3.2081 5.69101 3.55064 5.69101 4.23646V4.96373M4.23646 2.78192V0.600098M4.23646 0.600098H2.78192M4.23646 0.600098H6.23283C6.78349 0.600238 7.31373 0.808595 7.71719 1.18337L7.87283 1.32737M0.600098 8.6001H7.87283" stroke="white" stroke-width="1.2" stroke-linecap="round" stroke-linejoin="round"/>
<rect x="0.236816" y="8.8728" width="8" height="6" rx="1" fill="white"/>
</svg>
