<svg width="14" height="16" viewBox="0 0 14 16" fill="none" xmlns="http://www.w3.org/2000/svg">
<path d="M13.5385 1.84615V9.84615C13.5386 9.93052 13.5215 10.014 13.488 10.0915C13.4546 10.1689 13.4056 10.2387 13.3441 10.2964C13.2825 10.3541 13.2098 10.3985 13.1303 10.4269C13.0509 10.4553 12.9665 10.4671 12.8823 10.4615C12.7241 10.4479 12.5768 10.3749 12.4702 10.2572C12.3636 10.1395 12.3056 9.98574 12.3077 9.82692V1.84615C12.3079 1.76165 12.2907 1.67802 12.2572 1.60046C12.2236 1.5229 12.1745 1.45308 12.1128 1.39534C12.0511 1.33761 11.9781 1.2932 11.8985 1.26489C11.8189 1.23657 11.7343 1.22496 11.65 1.23077C11.4918 1.24511 11.3448 1.3187 11.2385 1.43681C11.1322 1.55492 11.0745 1.70883 11.0769 1.86769V12C11.0769 12.0816 11.0445 12.1599 10.9868 12.2176C10.9291 12.2753 10.8508 12.3077 10.7692 12.3077H0.307692C0.226087 12.3077 0.147825 12.2753 0.0901211 12.2176C0.0324176 12.1599 0 12.0816 0 12V1.84615C0 1.35652 0.194505 0.886947 0.540726 0.540726C0.886947 0.194505 1.35652 0 1.84615 0H11.6923C12.1819 0 12.6515 0.194505 12.9977 0.540726C13.344 0.886947 13.5385 1.35652 13.5385 1.84615ZM10.7692 13.5385H0.307692C0.226087 13.5385 0.147825 13.5709 0.0901211 13.6286C0.0324176 13.6863 0 13.7645 0 13.8462V14.7692C0 15.0957 0.12967 15.4087 0.360484 15.6395C0.591298 15.8703 0.904349 16 1.23077 16H9.84615C10.1726 16 10.4856 15.8703 10.7164 15.6395C10.9473 15.4087 11.0769 15.0957 11.0769 14.7692V13.8462C11.0769 13.7645 11.0445 13.6863 10.9868 13.6286C10.9291 13.5709 10.8508 13.5385 10.7692 13.5385Z" fill="white"/>
</svg>
